<svg xmlns="http://www.w3.org/2000/svg" width="26.992" height="27.5" viewBox="0 0 26.992 27.5"><defs><style>.a{fill:#1fbf8f;}</style></defs><path class="a" d="M24.781,9.305A11.063,11.063,0,0,0,20.892,6.78c.825-2.43,3.751-3.313,3.751-3.313S17.783-.079,10.26,1.336A11.676,11.676,0,0,0,3.568,5.321,10.486,10.486,0,0,0,4.706,20.2c.686.584,2.189,1.5,2.24,1.547-1,2.547-4.211,3.247-4.211,3.247a26.65,26.65,0,0,0,9.939,3.342,21.25,21.25,0,0,0,4.78.058,12.179,12.179,0,0,0,7.3-3.576,10.946,10.946,0,0,0,.029-15.514ZM22.833,23.119a10.173,10.173,0,0,1-5.889,2.729,18.536,18.536,0,0,1-4.072,0,19.55,19.55,0,0,1-4.838-1.321,7.3,7.3,0,0,0,1.722-2.474,1.89,1.89,0,0,0-.058-1.5A8.027,8.027,0,0,1,11.332,11.3a8.224,8.224,0,0,1,6.794-2.269,8.137,8.137,0,0,1,4.845,2.342,8.392,8.392,0,0,1-.139,11.749Z" transform="translate(-0.998 -1.003)"/></svg>