<svg xmlns="http://www.w3.org/2000/svg" width="19.204" height="28" viewBox="0 0 19.204 28"><defs><style>.a{fill:#4aa4ff;}</style></defs><path class="a" d="M17.669.666c.234.46,0,.693,0,1.153-.46,2.773-.919,5.553-1.62,8.553-.226.927.234.927.927.927,2.313.234,4.378.234,6.706.467a5.838,5.838,0,0,1,1.846.226c-4.159,5.546-8.085,11.1-12.478,16.638a11.909,11.909,0,0,1,.46-3.233L14.9,17.764c.234-.927-.234-1.153-.927-1.153-2.306-.234-4.619-.234-6.932-.467-.73,0-.927-.226-.46-.919C10.276,10.6,13.743,5.512,17.669.63Z" transform="translate(-6.324 -0.63)"/></svg>