<svg xmlns="http://www.w3.org/2000/svg" xmlns:xlink="http://www.w3.org/1999/xlink" width="85.797" height="59.228" viewBox="0 0 85.797 59.228"><defs><style>.a{fill:#91faff;}.b{filter:url(#a);}</style><filter id="a" x="0" y="0" width="85.797" height="59.228" filterUnits="userSpaceOnUse"><feOffset input="SourceAlpha"/><feGaussianBlur stdDeviation="4" result="b"/><feFlood flood-color="#d5fffc" flood-opacity="0.796"/><feComposite operator="in" in2="b"/><feComposite in="SourceGraphic"/></filter></defs><g class="b" transform="matrix(1, 0, 0, 1, 0, 0)"><path class="a" d="M47.923,1.57a56.217,56.217,0,0,0-10.6.685c-2.741.548-4.8,5.117-4.8,5.939a.568.568,0,0,0,.594.653,1.632,1.632,0,0,0,.326-.046s4.295-1.234,13.889-1.234c6.716,0,8.452,1.508,8.452,3.7,0,3.2-2.33,8.269-10.1,8.269-4.386,0-5.756-.137-5.756-.137-.5-.137-.548-.365-.548-.822s2.833-6.2,3.107-6.716a.653.653,0,0,0,.091-.274c0-.365-.457-.594-.959-.594-6.625,0-7.9,1.005-8.909,2.7-.489.786-3.378,6.928-5.5,11.5C25.556,27.9,23,30.672,18.165,30.672c-4.432,0-5.528-1.416-5.528-3.609,0-3.7,10.508-22.432,10.508-23.62,0-.274-.091-.5-.653-.685a36.381,36.381,0,0,0-5.437-.274c-1.6,0-3.426.137-4.432.228C9.243,3.038,7.187,7.607,7.187,8.24c0,.228.091.594.868.594,1.462,0,2.284.548,2.284,1.462,0,2.513-7.63,14.437-7.63,18.549,0,4.523,3.2,7.949,12.929,7.949a41.7,41.7,0,0,0,6.967-.493,13.523,13.523,0,0,0,2.444-.535,14.685,14.685,0,0,0,6.239-3.351l.075-.069h0a18.043,18.043,0,0,0,3.319-4.383l1.263-1.671a5.6,5.6,0,0,1,3.061-.594c1.142,0,2.558.091,4.34.091,6.527,0,11.33-.868,14.032-2.467a15.868,15.868,0,0,0,7.127-13.2C64.507,4.318,60.807,1.57,47.923,1.57Z" transform="translate(9.29 10.43)"/></g></svg>