<svg xmlns="http://www.w3.org/2000/svg" xmlns:xlink="http://www.w3.org/1999/xlink" width="260" height="164" viewBox="0 0 260 164"><defs><style>.a{fill:#ebebeb;opacity:0.433;}.b{clip-path:url(#a);}.c{fill:url(#b);}.d{fill:url(#c);}.e{fill:#fff;}</style><clipPath id="a"><rect class="a" width="260" height="164" rx="20" transform="translate(3107 -281)"/></clipPath><linearGradient id="b" y1="1" x2="1" gradientUnits="objectBoundingBox"><stop offset="0" stop-color="#002a30"/><stop offset="1" stop-color="#067080"/></linearGradient><linearGradient id="c" x1="0.146" y1="0.146" x2="0.854" y2="0.854" gradientUnits="objectBoundingBox"><stop offset="0" stop-color="#fcd466"/><stop offset="0.568" stop-color="#fba22a"/><stop offset="1" stop-color="#fa7f00"/></linearGradient></defs><g class="b" transform="translate(-3107 281)"><rect class="c" width="396" height="222" transform="translate(3039 -316)"/><g transform="translate(3237.27 -198.73)"><g transform="translate(-50.728 -50.728)"><circle class="d" cx="50.728" cy="50.728" r="50.728"/><g transform="translate(22.239 20.487)"><path class="e" d="M23.01,57.7h3.63l-.168-.53L19.365,35.308l-.287-.88-.364,1.119L13.27,52.306A11.483,11.483,0,0,0,23.01,57.7Z" transform="translate(-13.27 2.781)"/><path class="e" d="M28.764,39.816,21.625,53.4l-.377.717h15.12l-7.56-14.384Z" transform="translate(-7.878 6.366)"/><path class="e" d="M37.873,39.816l-.044-.084L30.27,54.116H45.39l-.377-.717Z" transform="translate(-1.78 6.366)"/><path class="e" d="M46.841,34.428l-.287.88L39.468,57.173l-.168.53h3.63a11.483,11.483,0,0,0,9.727-5.39L47.212,35.554Z" transform="translate(4.323 2.781)"/><path class="e" d="M28.764,26.525l.044.084,7.56-14.384H21.248l.377.717Z" transform="translate(-7.878 -12.225)"/><path class="e" d="M37.873,26.525l7.139-13.583.377-.717H30.27l7.56,14.384Z" transform="translate(-1.78 -12.225)"/><path class="e" d="M19.079,35.5l.287-.88,7.1-21.863.168-.53H23.01a11.483,11.483,0,0,0-9.74,5.391l5.445,16.759Z" transform="translate(-13.27 -12.225)"/><path class="e" d="M39.473,12.753l7.1,21.863.287.882.364-1.119L52.67,17.619a11.483,11.483,0,0,0-9.74-5.391H39.292Z" transform="translate(4.317 -12.223)"/></g></g></g></g></svg>