<svg xmlns="http://www.w3.org/2000/svg" xmlns:xlink="http://www.w3.org/1999/xlink" viewBox="0 0 432 215"><defs><style>.a,.d{fill:#4eb7bc;}.a{opacity:0.575;}.b,.c{fill:none;stroke:#fff;stroke-width:1.5px;}.b{opacity:0.519;}.c{opacity:0.52;}.e{clip-path:url(#a);}.f{fill:#fecb66;}.g{fill:#f5ad76;}.h{fill:#fedac6;}.i{fill:#e56b2e;}.j{fill:#f5c4b0;}.k{fill:#d65b25;}.l{clip-path:url(#b);}.m{fill:#a15d30;}.n{fill:#8f4f24;}.o{fill:#ebebeb;}.p{clip-path:url(#c);}.q{fill:#215280;}.r{fill:#70432c;}.s{fill:#5c3724;}.t{fill:#1c496e;}.u{fill:#c89ae0;}.v{fill:#491e5f;}</style><clipPath id="a"><circle class="a" cx="47" cy="47" r="47" transform="translate(802 1724)"/></clipPath><clipPath id="b"><circle class="a" cx="47" cy="47" r="47" transform="translate(971 1724)"/></clipPath><clipPath id="c"><circle class="a" cx="47" cy="47" r="47" transform="translate(1140 1724)"/></clipPath></defs><g transform="translate(-802 -1603)"><line class="b" y1="121" x2="169" transform="translate(849.5 1650.5)"/><line class="c" x1="169" y1="121" transform="translate(1018.5 1650.5)"/><line class="c" y1="121" transform="translate(1018.5 1650.5)"/><circle class="d" cx="47" cy="47" r="47" transform="translate(802 1724)"/><circle class="d" cx="47" cy="47" r="47" transform="translate(971 1724)"/><circle class="d" cx="47" cy="47" r="47" transform="translate(1140 1724)"/><g class="e"><g transform="translate(814.711 1734)"><path class="f" d="M114.473,41.433v9.4c0,4.7-6.267,12.534-4.7,21.934h0a94.506,94.506,0,0,0,53.267,0h0c1.567-9.4-2.366-17.234-3.133-21.934a179.155,179.155,0,0,1-1.567-23.5c0-10.387-6.846-18.8-17.234-18.8h-9.4a17.234,17.234,0,0,0-17.234,17.234S114.473,41.433,114.473,41.433Z" transform="translate(-101.939 -6.966)"/><path class="g" d="M131.095,8.533a17.234,17.234,0,0,0-16.623,17.234V50.834c0,4.7-6.267,12.534-4.7,21.934a94.511,94.511,0,0,0,24.675,3.807C122.306,36.733,123.872,19.5,131.095,8.533Z" transform="translate(-101.938 -6.966)"/><g transform="translate(1.567 51.701)"><path class="h" d="M193.258,312.934A13.615,13.615,0,0,0,206.826,300.4l.533-7.05-3.478-.439a3.133,3.133,0,0,1-2.742-3.133V281.6H185.425v8.194a3.134,3.134,0,0,1-2.742,3.133l-3.525.423.533,7.05A13.616,13.616,0,0,0,193.258,312.934Z" transform="translate(-160.357 -281.6)"/><path class="h" d="M89.29,367.866l-1.426-17.061-2.867.36a9.4,9.4,0,0,0-8.241,9.4V380.4H84.59a18.8,18.8,0,0,1,3.76-11.28Z" transform="translate(-76.757 -338.099)"/><path class="h" d="M371.184,351.165l-2.867-.36-1.426,17.061.94,1.253a18.8,18.8,0,0,1,3.76,11.28h7.833V360.5A9.4,9.4,0,0,0,371.184,351.165Z" transform="translate(-313.623 -338.099)"/></g><path class="i" d="M164.858,363.617l1.426-17.061-7.693-.956-.533,7.05a13.614,13.614,0,0,1-27.135,0l-.533-7.05-7.74.956,1.473,17.061-.94,1.253a18.8,18.8,0,0,0-3.76,11.28h50.134a18.8,18.8,0,0,0-3.76-11.28Z" transform="translate(-110.024 -282.149)"/><g transform="translate(1.567 26.634)"><path class="j" d="M76.757,366.5v19.9h4.7v-28A9.4,9.4,0,0,0,76.757,366.5Z" transform="translate(-76.757 -319.233)"/><path class="j" d="M228.958,288.713V281.6H213.291v7.113C219.166,291.768,223.083,291.768,228.958,288.713Z" transform="translate(-188.224 -256.533)"/><path class="j" d="M132.657,145.067a4.7,4.7,0,1,0,0,9.4h3.133v-9.4Z" transform="translate(-118.557 -145.067)"/></g><path class="h" d="M191.951,111.267a17.555,17.555,0,0,1-5.468,4.246L183.523,117a9.4,9.4,0,0,1-8.4,0l-3.133-1.567a17.593,17.593,0,0,1-9.588-13.411l-.313-12.69V81.5l1.567-1.567a10.544,10.544,0,0,1,7.458-3.133h11.907c7.27,0,7.27,0,8.836,4.7h0s-1.567,20.367-1.567,23.5A15.526,15.526,0,0,0,191.951,111.267Z" transform="translate(-144.856 -62.7)"/><path class="j" d="M168.358,85.331a28.194,28.194,0,0,1,1.065-7.677,10.528,10.528,0,0,0-5.766,2.977L162.091,82.2v7.834l.329,12.69a17.641,17.641,0,0,0,7.175,11.938C167.512,104.382,168.358,92.287,168.358,85.331Z" transform="translate(-144.857 -63.397)"/><path class="k" d="M121.476,465.579a18.891,18.891,0,0,0-2.052,8.523H129.89C124.437,471.814,122.291,468.305,121.476,465.579Z" transform="translate(-110.024 -380.1)"/><ellipse cx="3.133" cy="3.133" rx="3.133" ry="3.133" transform="translate(40.734 26.634)"/><path d="M227.6,162.939l-4.7-1.567a1.568,1.568,0,0,1-.906-2.187l4.7-9.4,2.8,1.4-3.892,7.785,2.986.995Z" transform="translate(-193.629 -122.285)"/><path d="M71.356,330.868H68.223v-19.9a10.963,10.963,0,0,1,9.615-10.954l14.1-1.755a1.569,1.569,0,0,0,1.369-1.567v-6.561H96.44v6.549a4.694,4.694,0,0,1-4.113,4.688l-14.1,1.755a7.835,7.835,0,0,0-6.868,7.833v19.909Z" transform="translate(-68.222 -236.866)"/><path d="M318.306,330.867h-3.133V311.048a7.838,7.838,0,0,0-6.867-7.846l-14.1-1.753a4.7,4.7,0,0,1-4.116-4.7v-6.616h3.133v6.627a1.571,1.571,0,0,0,1.371,1.579l14.1,1.753a10.967,10.967,0,0,1,9.615,10.967v19.808Z" transform="translate(-249.355 -236.866)"/><path d="M240.086,227.3h-1.2v-3.133h1.2a13.333,13.333,0,0,0,5.938-1.4l1.4,2.8A16.485,16.485,0,0,1,240.086,227.3Z" transform="translate(-207.557 -181.865)"/><path d="M216.341,50.029a9.265,9.265,0,0,0-5.363-4.022l.849-3.016A12.4,12.4,0,0,1,219,48.369Z" transform="translate(-184.769 -35.098)"/><path d="M175.786,65.542c-.75-.744-3.141-2.676-5.162-2.676V59.733c3.677,0,7.008,3.224,7.374,3.592Z" transform="translate(-151.823 -48.766)"/><ellipse cx="3.133" cy="3.133" rx="3.133" ry="3.133" transform="translate(20.367 26.634)"/><path d="M280.045,107.836c-4.3-7.523-3.1-18.669-2.143-27.624.465-4.332.9-8.424.418-10.375a3.27,3.27,0,0,0-1.631-2.291c-1.8-.932-4.708-.147-5.671.233l-1.161-2.911c.487-.194,4.86-1.85,8.253-.116a6.379,6.379,0,0,1,3.248,4.324c.622,2.489.2,6.453-.34,11.468-.913,8.507-2.049,19.093,1.747,25.735Z" transform="translate(-232.838 -52.225)"/><path d="M324.32,259.133h-.1V256Z" transform="translate(-277.223 -208.999)"/><path d="M172.371,140.45a10.97,10.97,0,0,1-4.9-1.147l-3.135-1.567a19.14,19.14,0,0,1-10.44-14.6,1.22,1.22,0,0,1-.012-.169l-.313-12.69V102.4h3.133v7.834l.312,12.565a16.011,16.011,0,0,0,8.723,12.136l3.135,1.567a7.884,7.884,0,0,0,7,0l2.956-1.487a15.928,15.928,0,0,0,4.987-3.87l2.372,2.048a18.987,18.987,0,0,1-5.957,4.625l-2.955,1.485A11.025,11.025,0,0,1,172.371,140.45Z" transform="translate(-137.904 -83.6)"/><path d="M101.255,219.324c-1.054-6.329,1.144-11.854,2.909-16.294.948-2.386,1.769-4.446,1.769-5.9v-9.4h3.133v9.4c0,2.051-.923,4.369-1.991,7.055-1.623,4.08-3.643,9.154-2.731,14.622Z" transform="translate(-94.966 -153.266)"/><path d="M179.637,66.058l-3.091-.514c1.078-6.475-.589-12.15-1.927-16.707a41.741,41.741,0,0,1-1.208-4.717,182.431,182.431,0,0,1-1.586-23.751c0-9.988-6.589-17.235-15.667-17.235h-9.4c-9.077,0-15.667,7.247-15.667,17.234V28.2h-3.133V20.367c0-11.8,7.907-20.367,18.8-20.367h9.4c10.893,0,18.8,8.565,18.8,20.367a178.716,178.716,0,0,0,1.553,23.294,40.424,40.424,0,0,0,1.112,4.291C178.98,52.562,180.835,58.875,179.637,66.058Z" transform="translate(-116.991)"/><path d="M127.258,149.067h-1.567a6.267,6.267,0,1,1,0-12.533h1.567v3.133h-1.567a3.133,3.133,0,1,0,0,6.267h1.567Z" transform="translate(-110.024 -111.467)"/><path d="M186.312,369.641a15.26,15.26,0,0,1-15.129-13.976l-.533-6.257,3.122-.266.533,6.267a12.043,12.043,0,0,0,24.011.01l.534-6.276,3.121.266-.533,6.267A15.253,15.253,0,0,1,186.312,369.641Z" transform="translate(-151.845 -285.04)"/><path d="M114.023,385.911H110.89a20.481,20.481,0,0,1,4.075-12.22l.573-.765-1.507-15.059,3.118-.312,1.567,15.667a1.567,1.567,0,0,1-.305,1.1l-.94,1.253A17.339,17.339,0,0,0,114.023,385.911Z" transform="translate(-103.056 -291.909)"/><path d="M366.19,385.9h-3.133a17.352,17.352,0,0,0-3.445-10.342l-.942-1.252a1.571,1.571,0,0,1-.306-1.1l1.567-15.667,3.118.312-1.506,15.057.573.764A20.5,20.5,0,0,1,366.19,385.9Z" transform="translate(-305.089 -291.903)"/></g></g><g class="l"><g transform="translate(982.74 1739)"><path class="m" d="M167.573,18.461l-.462-.223a14.005,14.005,0,0,0-13.272-9.559H127.28l3.187,9.559a8.7,8.7,0,0,0-4.509,10.053l2.916,9.066h3.186V29.39s9.56,0,14.339-1.593l14.339-4.78,6.373,11.153v3.186H170.3l1.88-9.416A8.7,8.7,0,0,0,167.573,18.461Z" transform="translate(-114.534 -7.085)"/><path class="n" d="M130.579,60.746A8.683,8.683,0,0,0,126.1,70.8l2.884,9.066h3.186V71.9s3.744,0,7.711-.382A25.116,25.116,0,0,1,130.579,60.746Z" transform="translate(-114.647 -49.593)"/><path class="f" d="M132.379,360.576l-11.073-1.482-.765,1.769a14.5,14.5,0,0,1-26.639,0l-.765-1.769-11.073,1.482a9.561,9.561,0,0,0-8.3,9.464v17.127H140.68V370.04A9.561,9.561,0,0,0,132.379,360.576Z" transform="translate(-72.171 -293.165)"/><path class="h" d="M193.37,324.439a14.484,14.484,0,0,0,13.32-8.779l.765-1.769-1.753-.239a3.185,3.185,0,0,1-2.772-3.187v-6.739H183.811v6.835a3.185,3.185,0,0,1-2.772,3.186l-1.753.239.765,1.769A14.482,14.482,0,0,0,193.37,324.439Z" transform="translate(-158.319 -247.964)"/><path class="j" d="M222.392,311.553a2.931,2.931,0,0,1-.191-1.051V303.73H203.082v6.835a2.931,2.931,0,0,1-.191,1.051A21.572,21.572,0,0,0,222.392,311.553Z" transform="translate(-177.59 -247.966)"/><path class="g" d="M80.136,369.768a9.559,9.559,0,0,0-6.373,8.986v17.127h6.373Z" transform="translate(-72.17 -301.88)"/><path class="h" d="M344.373,156.2H342.78v9.56h1.593a4.78,4.78,0,0,0,0-9.56Z" transform="translate(-291.796 -127.525)"/><path class="j" d="M134.508,160.983a4.78,4.78,0,0,0,4.78,4.78h1.593V156.2h-1.593A4.78,4.78,0,0,0,134.508,160.983Z" transform="translate(-121.762 -127.525)"/><path class="h" d="M195.735,115.124a9.557,9.557,0,0,1-2.358,6.373l-6.883,7.791a6.371,6.371,0,0,1-4.78,2.167h-6.978a6.371,6.371,0,0,1-4.78-2.167l-6.883-7.871a9.556,9.556,0,0,1-2.358-6.373V93.153s9.56,0,14.339-1.593l14.339-4.78,6.373,11.153Z" transform="translate(-143.158 -70.847)"/><path class="j" d="M166.913,120.016c-3.426.271-6.373.271-6.373.271v21.971a9.557,9.557,0,0,0,2.358,6.373l4.015,4.493V120.016Z" transform="translate(-143.015 -97.981)"/><g transform="translate(17.526 27.085)"><path class="o" d="M160.542,147.525h14.339v4.78a4.78,4.78,0,0,1-4.78,4.78h-4.78a4.78,4.78,0,0,1-4.78-4.78v-4.78Z" transform="translate(-160.542 -147.525)"/><path class="o" d="M273.356,147.525H287.7v4.78a4.78,4.78,0,0,1-4.78,4.78h-4.78a4.78,4.78,0,0,1-4.78-4.78v-4.78Z" transform="translate(-252.644 -147.525)"/></g><path d="M68.271,349.051H65.085V331.988a11.167,11.167,0,0,1,9.776-11.076l12.73-1.719a1.6,1.6,0,0,0,1.393-1.593v-5.192H92.17v5.178a4.777,4.777,0,0,1-4.16,4.765l-12.74,1.721a7.982,7.982,0,0,0-7,7.915v17.065Z" transform="translate(-65.085 -255.05)"/><path d="M326.474,349.052h-3.186V331.988a7.98,7.98,0,0,0-6.983-7.915L303.54,322.35a4.781,4.781,0,0,1-4.152-4.78v-5.164h3.187v5.178a1.6,1.6,0,0,0,1.386,1.608l12.752,1.721a11.166,11.166,0,0,1,9.76,11.076v17.062Z" transform="translate(-256.371 -255.05)"/><path d="M344.373,160.271H342.78v-3.186h1.593a3.187,3.187,0,0,0,0-6.373H342.78v-3.186h1.593a6.373,6.373,0,0,1,0,12.746Z" transform="translate(-291.796 -120.44)"/><path d="M133.8,160.271H132.2a6.373,6.373,0,0,1,0-12.746H133.8v3.186H132.2a3.187,3.187,0,0,0,0,6.373H133.8Z" transform="translate(-114.677 -120.44)"/><path d="M185.734,365.751h-.017a16.053,16.053,0,0,1-14.774-9.744l-1.02-2.372,2.928-1.257,1.02,2.374a12.875,12.875,0,0,0,11.847,7.813h.014a12.882,12.882,0,0,0,11.851-7.813l1.02-2.374,2.928,1.257-1.02,2.374A16.061,16.061,0,0,1,185.734,365.751Z" transform="translate(-150.675 -287.682)"/><path d="M229.253,160.426H222.88a1.592,1.592,0,0,1-1.546-1.98l3.186-12.682,3.089.776-2.688,10.7h4.331Z" transform="translate(-192.609 -119.001)"/><path d="M232.773,239.822h-2.807v-3.187h2.8a13.75,13.75,0,0,0,6.048-1.427l1.416,2.855A16.983,16.983,0,0,1,232.773,239.822Z" transform="translate(-199.694 -192.024)"/><path d="M174.639,125.966h-6.982a7.969,7.969,0,0,1-5.976-2.709l-6.884-7.872a11.15,11.15,0,0,1-2.752-7.436V86.071a1.594,1.594,0,0,1,1.593-1.593c.092,0,9.359-.019,13.836-1.512l14.339-4.78a1.6,1.6,0,0,1,1.888.722l6.373,11.153a1.589,1.589,0,0,1,.21.794l-.035,17.181a11.127,11.127,0,0,1-2.753,7.426l-6.888,7.8A7.967,7.967,0,0,1,174.639,125.966ZM155.23,87.64v20.322a7.974,7.974,0,0,0,1.964,5.326l6.881,7.867a4.777,4.777,0,0,0,3.583,1.624h6.977a4.782,4.782,0,0,0,3.583-1.627l6.884-7.794a7.946,7.946,0,0,0,1.958-5.3v-.017l.032-16.766-5.516-9.65-13.1,4.367C164.672,87.258,158.219,87.565,155.23,87.64Z" transform="translate(-136.079 -63.765)"/><path d="M120.358,30.757l-2.9-9.066a10.315,10.315,0,0,1,4.091-11.256L118.77,2.1A1.6,1.6,0,0,1,120.284,0h26.575A15.568,15.568,0,0,1,161.4,10.024a10.267,10.267,0,0,1,5.341,11.146l-1.88,9.413-3.124-.625,1.88-9.416a7.083,7.083,0,0,0-3.784-7.74l-.454-.236a1.592,1.592,0,0,1-.776-.91,12.388,12.388,0,0,0-11.749-8.471H122.493l2.489,7.463a1.592,1.592,0,0,1-.8,1.929,7.088,7.088,0,0,0-3.666,8.205l2.881,9Z" transform="translate(-107.538 0.001)"/><path d="M163.017,151.593h-4.78a6.379,6.379,0,0,1-6.373-6.373v-4.78a1.594,1.594,0,0,1,1.593-1.593H167.8a1.594,1.594,0,0,1,1.593,1.593v4.78A6.379,6.379,0,0,1,163.017,151.593Zm-7.966-9.559v3.186a3.19,3.19,0,0,0,3.186,3.187h4.78a3.19,3.19,0,0,0,3.186-3.187v-3.186Z" transform="translate(-135.932 -113.355)"/><path d="M275.831,151.593h-4.78a6.379,6.379,0,0,1-6.373-6.373v-4.78a1.594,1.594,0,0,1,1.593-1.593h14.339a1.593,1.593,0,0,1,1.593,1.593v4.78A6.379,6.379,0,0,1,275.831,151.593Zm-7.966-9.559v3.186a3.19,3.19,0,0,0,3.186,3.187h4.78a3.19,3.19,0,0,0,3.186-3.187v-3.186Z" transform="translate(-228.033 -113.355)"/><rect width="6.373" height="3.186" transform="translate(31.865 25.492)"/></g></g><g class="p"><g transform="translate(1152.971 1734)"><path class="h" d="M191.2,89.329v21.934a14.6,14.6,0,0,1-1.253,5.938h0A19,19,0,0,1,172.6,128.5h0a18.988,18.988,0,0,1-16.592-9.761l-.58-1.034a14.527,14.527,0,0,1-1.833-7.081V89.329L164.566,76.8h15.667Z" transform="translate(-137.932 -62.696)"/><path class="j" d="M158.738,113.062l-5.139,5.875v21.292a14.527,14.527,0,0,0,1.833,7.082l.58,1.034a18.688,18.688,0,0,0,5,5.765C159.866,144,156.732,131.471,158.738,113.062Z" transform="translate(-137.932 -92.304)"/><path class="h" d="M351.437,145.063H349.87v9.4h1.567a4.7,4.7,0,0,0,0-9.4Z" transform="translate(-298.168 -118.43)"/><path class="j" d="M128,149.762a4.7,4.7,0,0,0,4.7,4.7h1.567v-9.4H132.7A4.7,4.7,0,0,0,128,149.762Z" transform="translate(-117.032 -118.429)"/><path class="h" d="M195.39,361.993a14.242,14.242,0,0,0,13.1-8.632l.533-1.238-3.6-.423a6.392,6.392,0,0,1-3.76-1.833H189.124a6.392,6.392,0,0,1-3.76,1.833l-3.6.423.533,1.238A14.238,14.238,0,0,0,195.39,361.993Z" transform="translate(-160.923 -285.633)"/><path class="q" d="M131.729,363.142l-8.4-.987-.533,1.238a14.257,14.257,0,0,1-26.2,0l-.533-1.238-8.4.987A12.534,12.534,0,0,0,76.8,375.566v14.1h65.8v-14.1A12.537,12.537,0,0,0,131.729,363.142Z" transform="translate(-75.233 -295.665)"/><g transform="translate(15.736 1.565)"><path class="r" d="M185.492,21.061H160.424a6.47,6.47,0,0,1-2.9-.689h0A6.47,6.47,0,0,1,155.8,10.094l1.488-1.567,1.567,3.133h19.85c4.872,0,9.667,4.778,8.1,9.4Z" transform="translate(-153.976 -8.527)"/><path class="r" d="M304.935,76.794a7.442,7.442,0,0,1,5.107,7.693l-.407,4.841L298.668,76.794Z" transform="translate(-272.103 -64.26)"/></g><path class="s" d="M162.664,76.795,151.7,89.329l-.407-4.841c-.282-3.447,2.4-6.267,5.107-7.693Z" transform="translate(-136.03 -62.696)"/><path class="r" d="M185.073,212.33a1.567,1.567,0,0,1-2.789-.282l-1.112-2.9a3.133,3.133,0,0,0-2.961-2.021H166.868a3.133,3.133,0,0,0-2.93,2.021l-1.112,2.9a1.567,1.567,0,0,1-2.789.282L153.77,201.9v10.857a14.527,14.527,0,0,0,1.833,7.081l.58,1.034a18.989,18.989,0,0,0,33.935-1.567h0a14.574,14.574,0,0,0,1.222-5.906v-10.81Z" transform="translate(-138.072 -164.829)"/><g transform="translate(15.663 4.323)"><path class="s" d="M153.6,201.9v10.857a14.527,14.527,0,0,0,1.833,7.081l.58,1.034a18.8,18.8,0,0,0,5.17,5.922A73.216,73.216,0,0,1,159.4,211.5Z" transform="translate(-153.594 -169.152)"/><path class="s" d="M154.472,23.546a6.486,6.486,0,0,0,5.577,9.776h17.03C162.979,31.756,156.117,27.055,154.472,23.546Z" transform="translate(-153.575 -23.546)"/></g><rect class="h" width="6.267" height="7.834" transform="translate(7.834 86.168)"/><rect class="j" width="6.267" height="7.834" transform="translate(1.567 86.168)"/><rect class="h" width="12.534" height="7.834" transform="translate(54.835 86.168)"/><path class="j" d="M201.657,349.866H189.124a6.392,6.392,0,0,1-3.76,1.833l-3.6.423.533,1.238a14.242,14.242,0,0,0,4.7,5.906c4.12-.6,11.766-2.021,17.735-7.833A27.45,27.45,0,0,1,201.657,349.866Z" transform="translate(-160.923 -285.632)"/><path class="t" d="M83.065,381.013a9.4,9.4,0,0,0-6.267,8.852v7.363h6.267Z" transform="translate(-75.231 -311.06)"/><ellipse cx="3.133" cy="3.133" rx="3.133" ry="3.133" transform="translate(21.934 28.2)"/><ellipse cx="3.133" cy="3.133" rx="3.133" ry="3.133" transform="translate(40.735 28.2)"/><path d="M242.064,175.367H240.5a1.567,1.567,0,0,1-1.556-1.761l1.567-12.534,3.108.388L242.064,173.9v1.468Z" transform="translate(-207.597 -131.5)"/><path d="M351.437,149.063H349.87v-3.133h1.567a3.133,3.133,0,0,0,0-6.267H349.87v-3.133h1.567a6.267,6.267,0,1,1,0,12.534Z" transform="translate(-298.168 -111.463)"/><path d="M127.3,149.063h-1.567a6.267,6.267,0,1,1,0-12.534H127.3v3.133h-1.567a3.133,3.133,0,1,0,0,6.267H127.3Z" transform="translate(-110.066 -111.463)"/><path d="M165.639,178.83a20.567,20.567,0,0,1-17.962-10.566l-.576-1.028a16.155,16.155,0,0,1-2.034-7.851V136.529H148.2v22.858a13.03,13.03,0,0,0,1.636,6.322l.576,1.026a17.4,17.4,0,0,0,31.137-1.4,12.923,12.923,0,0,0,1.119-5.3v-23.5H185.8v23.5a16.055,16.055,0,0,1-1.388,6.572A20.592,20.592,0,0,1,165.639,178.83Z" transform="translate(-130.966 -111.463)"/><path d="M232.892,264.613a16.427,16.427,0,0,1-5.2-.84l.993-2.97a13.354,13.354,0,0,0,8.409,0l.992,2.97A16.437,16.437,0,0,1,232.892,264.613Z" transform="translate(-198.424 -212.921)"/><path d="M177.676,213.264a3.139,3.139,0,0,1-2.93-2.026l-1.109-2.891a1.575,1.575,0,0,0-1.468-1.015H160.827a1.507,1.507,0,0,0-1.5,1.01l-1.116,2.9a3.133,3.133,0,0,1-5.576.561l-6.267-9.9,2.648-1.675,6.267,9.9,1.114-2.9a4.633,4.633,0,0,1,4.438-3.027h11.327a4.727,4.727,0,0,1,4.395,3.032l1.111,2.892,6.3-9.9,2.645,1.681-6.3,9.9a3.163,3.163,0,0,1-1.534,1.25A3.091,3.091,0,0,1,177.676,213.264Z" transform="translate(-132.032 -163.464)"/><path d="M179.851,15.666H153.468a8.033,8.033,0,0,1-5.747-13.624L149.2.486a1.568,1.568,0,0,1,2.538.379l1.134,2.267h18.881a10.638,10.638,0,0,1,8.354,4.381,7.7,7.7,0,0,1,1.23,7.088A1.566,1.566,0,0,1,179.851,15.666Zm-29.919-11.4a4.892,4.892,0,0,0,3.538,8.269h25.108a5.087,5.087,0,0,0-1.018-3.193,7.517,7.517,0,0,0-5.808-3.074H151.9a1.568,1.568,0,0,1-1.4-.866Z" transform="translate(-131.283 0)"/><path d="M304.39,82.827a1.572,1.572,0,0,1-1.18-.534L292.243,69.759,294.6,67.7l8.535,9.756.1-1.163a6.279,6.279,0,0,0-4.086-6.434l1.08-2.942a9.417,9.417,0,0,1,6.127,9.646l-.407,4.835a1.564,1.564,0,0,1-1.072,1.357A1.585,1.585,0,0,1,304.39,82.827Z" transform="translate(-251.121 -54.627)"/><path d="M144.683,84.653a1.568,1.568,0,0,1-1.562-1.435l-.407-4.841a9.345,9.345,0,0,1,5.189-9.228l1.393,2.808a6.23,6.23,0,0,0-3.459,6.154l.1,1.167,8.535-9.756,2.358,2.063L145.861,84.119A1.563,1.563,0,0,1,144.683,84.653Z" transform="translate(-129.016 -56.454)"/><path d="M71.4,374.716H68.265v-14.1A14.147,14.147,0,0,1,80.5,346.639l12.026-1.413a4.836,4.836,0,0,0,2.833-1.383l2.22,2.212a7.986,7.986,0,0,1-4.683,2.283l-12.006,1.41a11,11,0,0,0-9.49,10.868Z" transform="translate(-68.265 -280.714)"/><path d="M186.906,365.978h-.017a15.785,15.785,0,0,1-14.528-9.582l-1-2.333,2.88-1.236,1,2.334a12.661,12.661,0,0,0,11.65,7.683h.014a12.663,12.663,0,0,0,11.652-7.683l1-2.334,2.88,1.236-1,2.334A15.8,15.8,0,0,1,186.906,365.978Z" transform="translate(-152.43 -288.049)"/><path d="M90.9,470.2H87.765v-6.267H76.8V460.8H89.332a1.566,1.566,0,0,1,1.567,1.567Z" transform="translate(-75.231 -376.2)"/><path d="M313.4,374.723H310.27v-14.1a11,11,0,0,0-9.515-10.87l-11.976-1.407a8,8,0,0,1-4.686-2.283l2.218-2.212a4.849,4.849,0,0,0,2.839,1.383l12,1.41A14.15,14.15,0,0,1,313.4,360.623v14.1Z" transform="translate(-244.468 -280.721)"/><path d="M361.536,470.2H358.4v-7.833a1.565,1.565,0,0,1,1.567-1.567H372.5v3.133H361.536Z" transform="translate(-305.135 -376.2)"/></g></g><rect class="u" width="216" height="94" rx="14" transform="translate(910 1603)"/><g transform="translate(930 1553.994)"><path class="v" d="M32.656,79.923H20.579c-6.663,0-12.077,2.789-12.077,6.235v18.71c0,3.447,5.414,6.236,12.077,6.236H32.656c6.675,0,12.076-2.789,12.076-6.236V86.158C44.732,82.712,39.331,79.923,32.656,79.923Zm96.61-24.945H117.189c-6.674,0-12.074,2.789-12.074,6.236v43.654c0,3.447,5.4,6.236,12.074,6.236h12.077c6.676,0,12.077-2.789,12.077-6.236V61.214C141.343,57.767,135.942,54.978,129.266,54.978ZM177.572,42.5H165.494c-6.674,0-12.075,2.79-12.075,6.237v56.127c0,3.447,5.4,6.236,12.075,6.236h12.078c6.674,0,12.075-2.789,12.075-6.236V48.741C189.647,45.294,184.246,42.5,177.572,42.5ZM80.961,67.45H68.885c-6.663,0-12.077,2.79-12.077,6.237v31.182c0,3.447,5.414,6.236,12.077,6.236H80.961c6.676,0,12.076-2.789,12.076-6.236V73.686C93.037,70.24,87.637,67.45,80.961,67.45Z" transform="translate(-10.668 19.287)"/></g></g></svg>