<svg xmlns="http://www.w3.org/2000/svg" xmlns:xlink="http://www.w3.org/1999/xlink" viewBox="0 0 179 179"><defs><style>.a,.c{fill:#fff;}.a{opacity:0.534;}.b{clip-path:url(#a);}</style><clipPath id="a"><rect class="a" width="179" height="179" transform="translate(707 856)"/></clipPath></defs><g class="b" transform="translate(-707 -856)"><path class="c" d="M134.2,1.57c-20.2,0-28.831,1.594-30.824,1.993C95.4,5.157,89.422,18.444,89.422,20.835a1.651,1.651,0,0,0,1.727,1.9A4.745,4.745,0,0,0,92.1,22.6s12.489-3.587,40.39-3.587c19.531,0,24.58,4.384,24.58,10.762,0,9.3-6.776,24.048-29.363,24.048-12.755,0-16.741-.4-16.741-.4-1.461-.4-1.594-1.063-1.594-2.392S117.608,33,118.405,31.5a1.9,1.9,0,0,0,.266-.8c0-1.063-1.329-1.727-2.79-1.727-19.265,0-22.985,2.923-25.908,7.839-1.424,2.287-9.822,20.148-16,33.434C69.151,78.128,61.73,86.2,47.656,86.2c-12.888,0-16.076-4.119-16.076-10.5,0-10.762,30.558-65.236,30.558-68.69,0-.8-.266-1.461-1.9-1.993-1.063-.4-8.37-.8-15.811-.8-4.65,0-9.965.4-12.888.664-9.832.949-15.811,14.235-15.811,16.076,0,.664.266,1.727,2.524,1.727,4.252,0,6.643,1.594,6.643,4.252C24.9,34.254,2.71,68.932,2.71,80.889c0,13.153,9.3,23.118,37.6,23.118a121.286,121.286,0,0,0,20.262-1.433,39.328,39.328,0,0,0,7.108-1.556,42.706,42.706,0,0,0,18.145-9.746l.218-.2h0A52.472,52.472,0,0,0,95.7,78.327l3.673-4.859c1.993-1.329,4.916-1.727,8.9-1.727,3.322,0,7.44.266,12.622.266,18.98,0,32.95-2.524,40.808-7.175,11.028-6.643,20.727-21.524,20.727-38.4S171.664,1.57,134.2,1.57Z" transform="translate(701.51 848.154)"/></g></svg>