<svg xmlns="http://www.w3.org/2000/svg" viewBox="0 0 84.202 48"><defs><style>.a{fill:#fff;}</style></defs><path class="a" d="M64.316,1.57c-9.462,0-13.508.747-14.442.934-3.735.747-6.536,6.972-6.536,8.093a.774.774,0,0,0,.809.889,2.223,2.223,0,0,0,.445-.062s5.852-1.681,18.924-1.681c9.151,0,11.516,2.054,11.516,5.042,0,4.358-3.175,11.267-13.757,11.267-5.976,0-7.844-.187-7.844-.187-.685-.187-.747-.5-.747-1.121s3.86-8.448,4.233-9.151a.889.889,0,0,0,.125-.374c0-.5-.623-.809-1.307-.809-9.026,0-10.769,1.37-12.139,3.673-.667,1.072-4.6,9.44-7.5,15.665-2.259,3.691-5.736,7.474-12.33,7.474-6.038,0-7.532-1.93-7.532-4.918,0-5.042,14.318-30.565,14.318-32.183,0-.374-.125-.685-.889-.934a49.571,49.571,0,0,0-7.408-.374c-2.179,0-4.669.187-6.038.311-4.607.445-7.408,6.67-7.408,7.532,0,.311.125.809,1.183.809,1.992,0,3.113.747,3.113,1.992,0,3.424-10.4,19.671-10.4,25.274,0,6.163,4.358,10.832,17.617,10.832a56.826,56.826,0,0,0,9.493-.671,18.426,18.426,0,0,0,3.33-.729,20.009,20.009,0,0,0,8.5-4.567l.1-.093h0a24.585,24.585,0,0,0,4.522-5.972L48,35.256a7.629,7.629,0,0,1,4.171-.809c1.556,0,3.486.125,5.914.125,8.893,0,15.438-1.183,19.12-3.362,5.167-3.113,9.711-10.085,9.711-17.99S81.87,1.57,64.316,1.57Z" transform="translate(-2.71 -1.57)"/></svg>