<svg xmlns="http://www.w3.org/2000/svg" xmlns:xlink="http://www.w3.org/1999/xlink" viewBox="0 0 80 80"><defs><style>.a{fill:none;stroke:#707070;}.b{clip-path:url(#a);}.c{fill:#91faff;}</style><clipPath id="a"><rect class="a" width="80" height="80" transform="translate(0 0)"/></clipPath></defs><g class="b"><path class="c" d="M103.885,95.732l-.141-.357a.043.043,0,0,0-.022-.023l-.35-.159c-2.877-1.307-6.936-1.629-10.526-1.772H88.8a.043.043,0,0,0-.018.081l8.307,3.983a.042.042,0,0,1-.029.079,43.695,43.695,0,0,0-22.439-.009.042.042,0,0,1-.029-.079l8.6-3.973a.043.043,0,0,0-.018-.082H78.8c-3.591.143-7.649.465-10.526,1.772l-.35.159a.042.042,0,0,0-.022.023l-.141.357c-2.944,7.461-3.781,20.127-2.889,28.062l.047.416.331.257a32.288,32.288,0,0,0,14.62,5.887l.5.063a.354.354,0,0,0,.375-.227l2.518-6.728a.354.354,0,0,0-.276-.473l-.773-.121a18.831,18.831,0,0,1-9.739-4.472.084.084,0,0,1,.085-.142c.262.1.551.21.849.327a18.209,18.209,0,0,0,1.976.7,45.17,45.17,0,0,0,10.436,1.24v-.062h.007v.062a45.142,45.142,0,0,0,10.428-1.24,18.206,18.206,0,0,0,1.977-.7c.3-.116.587-.229.849-.327a.084.084,0,0,1,.085.142,18.835,18.835,0,0,1-9.739,4.455l-.773.121a.354.354,0,0,0-.277.473L90.9,130.19a.354.354,0,0,0,.375.227l.5-.063a32.287,32.287,0,0,0,14.619-5.887l.331-.257.047-.416C107.666,115.86,106.829,103.193,103.885,95.732ZM77.6,114.05a5.021,5.021,0,1,1,4.542-4.542A5.026,5.026,0,0,1,77.6,114.05Zm17.356,0a5.021,5.021,0,1,1,4.542-4.542A5.026,5.026,0,0,1,94.961,114.05Z" transform="translate(-46.135 -71.821)"/></g></svg>